<?xml version="1.0" encoding="UTF-8" standalone="no" ?>
<!DOCTYPE svg PUBLIC "-//W3C//DTD SVG 1.1//EN" "http://www.w3.org/Graphics/SVG/1.1/DTD/svg11.dtd">
<svg xmlns="http://www.w3.org/2000/svg" xmlns:xlink="http://www.w3.org/1999/xlink" version="1.1" width="500" height="500" viewBox="0 0 500 500" xml:space="preserve">
<desc>Created with Fabric.js 4.6.0</desc>
<defs>
</defs>
<g transform="matrix(2.09 0 0 2.09 246.07 235.72)" id="O2z608WHQYjlJ-XnGj7xK"  >
<path style="stroke: rgb(255,255,255); stroke-width: 20; stroke-dasharray: none; stroke-linecap: butt; stroke-dashoffset: 0; stroke-linejoin: miter; stroke-miterlimit: 4; fill: rgb(229,229,229); fill-opacity: 0; fill-rule: nonzero; opacity: 1;" vector-effect="non-scaling-stroke"  transform=" translate(0, 0)" d="M 0 -100.04195 C 55.22315 -100.04195 100.04195 -55.22316 100.04195 0 C 100.04195 55.22315 55.22316 100.04195 0 100.04195 C -55.22315 100.04195 -100.04195 55.22316 -100.04195 0 C -100.04195 -55.22315 -55.22316 -100.04195 0 -100.04195 z" stroke-linecap="round" />
</g>
<g transform="matrix(1 0 0 1 246.07 235.72)" style="" id="v1FgimNzPj4QxPl2fsdIm"  >
		<text xml:space="preserve" font-family="Open Sans" font-size="55" font-style="normal" font-weight="700" letter-spacing="0.11" line-height="1" style="stroke: none; stroke-width: 1; stroke-dasharray: none; stroke-linecap: butt; stroke-dashoffset: 0; stroke-linejoin: miter; stroke-miterlimit: 4; fill: rgb(255,255,255); fill-rule: nonzero; opacity: 1; white-space: pre;" ><tspan x="-164.5" y="-47.65" style="white-space: pre; "> </tspan><tspan x="-150.1" y="-47.65" style="white-space: pre; "> </tspan><tspan x="-135.71" y="-47.65" style="white-space: pre; "> </tspan><tspan x="-121.31" y="-47.65" style="white-space: pre; "> </tspan><tspan x="-106.91" y="-47.65" style="white-space: pre; "> </tspan><tspan x="-92.51" y="-47.65" style="white-space: pre; "> </tspan><tspan x="-78.12" y="-47.65" style="white-space: pre; "> </tspan><tspan x="-63.72" y="-47.65" >E</tspan><tspan x="-32.81" y="-47.65" >A</tspan><tspan x="5.25" y="-47.65" >V</tspan><tspan x="-164.5" y="14.5" >p</tspan><tspan x="-129.59" y="14.5" >l</tspan><tspan x="-112.69" y="14.5" >a</tspan><tspan x="-79.36" y="14.5" >c</tspan><tspan x="-50.97" y="14.5" >e</tspan><tspan x="-18.37" y="14.5" >h</tspan><tspan x="17.89" y="14.5" >o</tspan><tspan x="52.05" y="14.5" >l</tspan><tspan x="68.95" y="14.5" >d</tspan><tspan x="103.86" y="14.5" >e</tspan><tspan x="136.47" y="14.5" >r</tspan><tspan x="-164.5" y="76.65" style="white-space: pre; "> </tspan><tspan x="-150.1" y="76.65" style="white-space: pre; "> </tspan><tspan x="-135.71" y="76.65" style="white-space: pre; "> </tspan><tspan x="-121.31" y="76.65" style="white-space: pre; "> </tspan><tspan x="-106.91" y="76.65" style="white-space: pre; "> </tspan><tspan x="-92.51" y="76.65" style="white-space: pre; "> </tspan><tspan x="-78.12" y="76.65" style="white-space: pre; "> </tspan><tspan x="-63.72" y="76.65" >l</tspan><tspan x="-46.83" y="76.65" >o</tspan><tspan x="-12.66" y="76.65" >g</tspan><tspan x="18.52" y="76.65" >o</tspan></text>
</g>
</svg>